<svg width="640" height="360" viewBox="0 0 640 360" fill="none" xmlns="http://www.w3.org/2000/svg">
  <defs>
    <linearGradient id="g" x1="50" y1="18" x2="586" y2="340" gradientUnits="userSpaceOnUse">
      <stop stop-color="#22D3EE" stop-opacity="0.52"/>
      <stop offset="1" stop-color="#F97316" stop-opacity="0.58"/>
    </linearGradient>
  </defs>
  <rect width="640" height="360" rx="28" fill="#081126"/>
  <rect x="14" y="14" width="612" height="332" rx="22" fill="url(#g)"/>
  <rect x="14" y="14" width="612" height="332" rx="22" fill="#020617" fill-opacity="0.62"/>

  <rect x="156" y="70" width="328" height="226" rx="18" fill="#0F1A32"/>
  <rect x="184" y="104" width="160" height="12" rx="6" fill="#22D3EE" fill-opacity="0.72"/>
  <rect x="184" y="128" width="268" height="10" rx="5" fill="#E2E8F0" fill-opacity="0.32"/>
  <rect x="184" y="148" width="236" height="10" rx="5" fill="#E2E8F0" fill-opacity="0.24"/>
  <rect x="184" y="176" width="106" height="36" rx="10" fill="#FB923C" fill-opacity="0.84"/>
  <rect x="304" y="176" width="148" height="36" rx="10" fill="#1E1B4B"/>
  <rect x="184" y="230" width="268" height="10" rx="5" fill="#E2E8F0" fill-opacity="0.24"/>

  <circle cx="500" cy="98" r="36" fill="#A78BFA" fill-opacity="0.34"/>
  <circle cx="118" cy="252" r="40" fill="#22D3EE" fill-opacity="0.3"/>
</svg>
